<mxfile host="app.diagrams.net" modified="2024-01-14T09:30:47.963Z" agent="Mozilla/5.0 (X11; Linux x86_64) AppleWebKit/537.36 (KHTML, like Gecko) Chrome/120.0.0.0 Safari/537.36" etag="CBLj_f6-OGurRcNYDhfM" version="22.1.18" type="device">
  <diagram name="Page-1" id="5-UvtpBtOoiSB6YWCKEy">
    <mxGraphModel dx="678" dy="473" grid="1" gridSize="10" guides="1" tooltips="1" connect="1" arrows="1" fold="1" page="1" pageScale="1" pageWidth="850" pageHeight="1100" math="0" shadow="0">
      <root>
        <mxCell id="0" />
        <mxCell id="1" parent="0" />
        <mxCell id="meIlSWVv1D3KrbEMHYhf-2" value="" style="triangle;whiteSpace=wrap;html=1;rotation=-90;fillColor=none;" vertex="1" parent="1">
          <mxGeometry x="150" y="50" width="160" height="210" as="geometry" />
        </mxCell>
        <mxCell id="meIlSWVv1D3KrbEMHYhf-1" value="Output&lt;br&gt;diversity" style="ellipse;whiteSpace=wrap;html=1;fillColor=#f8cecc;strokeColor=#b85450;" vertex="1" parent="1">
          <mxGeometry x="190" y="40" width="80" height="80" as="geometry" />
        </mxCell>
        <mxCell id="meIlSWVv1D3KrbEMHYhf-3" value="Speed of&lt;br&gt;computation" style="ellipse;whiteSpace=wrap;html=1;fillColor=#dae8fc;strokeColor=#6c8ebf;" vertex="1" parent="1">
          <mxGeometry x="290" y="190" width="80" height="80" as="geometry" />
        </mxCell>
        <mxCell id="meIlSWVv1D3KrbEMHYhf-4" value="Output&lt;br&gt;quality" style="ellipse;whiteSpace=wrap;html=1;fillColor=#d5e8d4;strokeColor=#82b366;" vertex="1" parent="1">
          <mxGeometry x="90" y="190" width="80" height="80" as="geometry" />
        </mxCell>
      </root>
    </mxGraphModel>
  </diagram>
</mxfile>
